<svg width="143" height="79" viewBox="0 0 143 79" fill="none" xmlns="http://www.w3.org/2000/svg">
<path d="M33.6337 39.6652L36.3193 36.4966C42.8601 28.7793 51.613 23.2566 61.3945 20.6752C71.1759 18.0939 81.5141 18.5784 91.0112 22.0633C100.508 25.5481 108.706 31.8652 114.497 40.1604C120.287 48.4555 123.391 58.3286 123.388 68.4448L33.6337 39.6652ZM33.6337 39.6652L37.7241 38.9436M33.6337 39.6652L37.7241 38.9436M37.7241 38.9436L56.8051 35.5776L56.8194 35.5751M37.7241 38.9436L56.8194 35.5751M56.8194 35.5751L56.8336 35.5723M56.8194 35.5751L56.8336 35.5723M56.8336 35.5723C57.9769 35.3477 59.1536 35.3535 60.2947 35.5892C61.4358 35.8249 62.5184 36.2858 63.4792 36.945C64.44 37.6041 65.2597 38.4483 65.8903 39.4281C66.5209 40.4079 66.9498 41.5037 67.1518 42.6512C67.3538 43.7987 67.3249 44.9751 67.0668 46.1113C66.8087 47.2475 66.3265 48.3209 65.6486 49.2685C64.9706 50.2162 64.1105 51.0191 63.1185 51.6303C62.1264 52.2415 61.0225 52.6487 59.8712 52.8281L59.8563 52.8304M56.8336 35.5723L59.8563 52.8304M59.8563 52.8304L59.8414 52.833M59.8563 52.8304L59.8414 52.833M59.8414 52.833L21.228 59.6472L21.13 59.6645M59.8414 52.833L21.13 59.6645M21.13 59.6645L21.0353 59.6945M21.13 59.6645L21.0353 59.6945M21.0353 59.6945C18.364 60.5415 15.2218 60.1569 12.8731 58.5134L12.8711 58.5119M21.0353 59.6945L12.8711 58.5119M12.8711 58.5119C10.9639 57.1822 9.67255 55.145 9.26913 52.8593C9.26912 52.8593 9.26911 52.8592 9.26909 52.8591L2.14028 12.426L2.13775 12.4117M12.8711 58.5119L2.13775 12.4117M2.13775 12.4117L2.13495 12.3974M2.13775 12.4117L2.13495 12.3974M2.13495 12.3974C1.9104 11.254 1.91615 10.0774 2.15186 8.93629C2.38756 7.79519 2.84848 6.71256 3.50766 5.75176C4.16684 4.79095 5.01102 3.97127 5.99082 3.34066C6.97061 2.71006 8.06634 2.28121 9.21389 2.07921C10.3614 1.8772 11.5377 1.9061 12.674 2.16421C13.8102 2.42232 14.8836 2.90446 15.8312 3.58241C16.7789 4.26036 17.5818 5.12051 18.193 6.11253C18.8042 7.10454 19.2114 8.2085 19.3908 9.35979L19.3931 9.37477M2.13495 12.3974L19.3931 9.37477M19.3931 9.37477L19.3958 9.3897M19.3931 9.37477L19.3958 9.3897M19.3958 9.3897L21.7698 22.8333L22.304 25.8584M19.3958 9.3897L22.304 25.8584M22.304 25.8584L24.361 23.5768M22.304 25.8584L24.361 23.5768M24.361 23.5768C30.6262 16.6275 38.2829 11.0735 46.8338 7.27523C55.3848 3.47697 64.639 1.51942 73.9956 1.52964H73.9972M24.361 23.5768L73.9972 1.52964M73.9972 1.52964C110.954 1.52964 140.912 31.4875 140.912 68.4448M73.9972 1.52964L140.912 68.4448M140.912 68.4448C140.912 70.7687 139.989 72.9974 138.346 74.6406M140.912 68.4448L138.346 74.6406M138.346 74.6406C136.703 76.2839 134.474 77.207 132.15 77.207M138.346 74.6406L132.15 77.207M132.15 77.207C129.826 77.207 127.597 76.2839 125.954 74.6406M132.15 77.207L125.954 74.6406M125.954 74.6406C124.311 72.9975 123.388 70.769 123.388 68.4452L125.954 74.6406Z" fill="white" stroke="#B28100" stroke-width="3"/>
</svg>
