<svg width="152" height="152" viewBox="0 0 152 152" fill="none" xmlns="http://www.w3.org/2000/svg">
<path d="M127.552 84.5648L127.582 84.5797C128.042 81.7742 128.265 78.9094 128.265 76.0742C128.265 73.5359 128.072 70.9828 127.716 68.4891C128.072 70.968 128.25 73.4766 128.25 75.9852C128.25 78.8648 128.013 81.7445 127.552 84.5648ZM14.6954 59.093C14.6211 59.0336 14.5618 58.9742 14.4875 58.9C14.5915 59.0039 14.6954 59.1078 14.8141 59.2117L24.5368 67.5094V67.4945L14.6954 59.093ZM94.3469 27.0305H94.3618L92.061 14.5914C92.0313 14.443 92.0016 14.3094 91.9571 14.1758C91.9719 14.25 92.0016 14.3391 92.0165 14.4133L94.3469 27.0305ZM102.363 108.152L107.023 104.322L120.798 109.205C123.322 105.806 125.445 102.155 127.122 98.2805L116.034 88.7953L117.013 82.843C117.384 80.6016 117.577 78.3008 117.577 76C117.577 73.6992 117.384 71.3984 117.013 69.157L116.048 63.2344L127.137 53.7492C125.445 49.8898 123.337 46.2234 120.813 42.8242L107.038 47.7078L102.377 43.8781C98.8297 40.9688 94.8665 38.6828 90.6063 37.0797L84.9508 34.957L82.2938 20.5586C78.1015 20.0836 73.8689 20.0836 69.6766 20.5586L67.0196 34.9867L61.3938 37.1094C57.1633 38.7125 53.2297 40.9984 49.7118 43.893L45.0508 47.7375L31.1868 42.8094C28.6633 46.2086 26.5407 49.8602 24.8633 53.7344L36.0704 63.3086L35.1055 69.2461C34.7344 71.4578 34.5563 73.7289 34.5563 76C34.5563 78.2562 34.7493 80.5422 35.1055 82.7539L36.0704 88.6914L24.8633 98.2656C26.5555 102.125 28.6633 105.791 31.1868 109.191L45.0508 104.263L49.7118 108.107C53.2297 111.002 57.1633 113.287 61.3938 114.891L67.0047 117.043L69.6618 131.471C73.8477 131.946 78.1079 131.946 82.2789 131.471L84.936 117.073L90.5914 114.95C94.8664 113.347 98.8149 111.061 102.363 108.152ZM76.0743 100.685C71.5469 100.685 67.2868 99.5273 63.561 97.4938C55.4118 93.0703 49.875 84.4461 49.875 74.5156C49.875 60.0875 61.5719 48.3906 76 48.3906C85.9305 48.3906 94.5547 53.9273 98.9782 62.0766C101.012 65.7875 102.17 70.0477 102.17 74.5898C102.17 89.0031 90.4875 100.685 76.0743 100.685ZM30.7563 120.65C29.9399 120.932 29.0938 120.991 28.2922 120.828C29.1383 121.006 30.029 120.977 30.8899 120.68L42.9727 116.375C42.9579 116.36 42.9282 116.345 42.9133 116.33L30.7563 120.65ZM137.275 59.093L127.552 67.4055C127.552 67.4352 127.567 67.4797 127.567 67.5094L137.275 59.2117C138.329 58.3062 138.923 57 138.938 55.6492C138.893 56.9555 138.299 58.2172 137.275 59.093Z" fill="white" fill-opacity="0.15"/>
<path d="M138.908 95.9797C138.982 96.6774 138.908 97.3899 138.656 98.0727L138.522 98.4586C135.839 105.936 131.831 112.87 126.692 118.928L126.424 119.24C125.802 119.976 124.97 120.505 124.039 120.757C123.108 121.009 122.123 120.972 121.214 120.65L109.146 116.36C104.719 120.008 99.7182 122.897 94.347 124.91L92.0165 137.527C91.8407 138.477 91.3801 139.35 90.6961 140.032C90.012 140.713 89.1369 141.17 88.1868 141.342L87.786 141.416C83.9066 142.118 79.9721 142.471 76.0298 142.47H76.0743C80.0376 142.47 84.0009 142.114 87.8603 141.416L88.261 141.342C89.2111 141.17 90.0863 140.713 90.7703 140.032C91.4544 139.35 91.9149 138.477 92.0907 137.527L94.4212 124.925C99.7946 122.906 104.752 120.041 109.206 116.39L121.259 120.68C122.168 121.001 123.153 121.039 124.084 120.787C125.014 120.535 125.846 120.006 126.469 119.27L126.736 118.958C131.902 112.857 135.865 105.984 138.552 98.518L138.685 98.1321C138.923 97.4344 138.997 96.6922 138.908 95.9797Z" fill="#777777" fill-opacity="0.15"/>
<path d="M102.125 74.5156C102.125 70.018 100.982 65.7727 98.9781 62.0766C94.5547 53.9273 85.9305 48.3906 76 48.3906C61.5719 48.3906 49.875 60.0875 49.875 74.5156C49.875 84.4461 55.4117 93.0703 63.5609 97.4937C67.257 99.4977 71.4875 100.641 76 100.641C90.4281 100.641 102.125 88.9437 102.125 74.5156ZM59.375 74.5156C59.375 70.0773 61.1117 65.9062 64.2437 62.7594C67.3906 59.6125 71.5617 57.8906 76 57.8906C80.4383 57.8906 84.6094 59.6125 87.7563 62.7594C89.3026 64.3013 90.5289 66.1338 91.3644 68.1514C92.2 70.169 92.6284 72.3319 92.625 74.5156C92.625 78.9539 90.8883 83.125 87.7563 86.2719C86.2143 87.8182 84.3818 89.0445 82.3643 89.8801C80.3467 90.7156 78.1838 91.144 76 91.1406C71.5617 91.1406 67.3906 89.4039 64.2437 86.2719C62.6974 84.7299 61.4711 82.8975 60.6356 80.8799C59.8 78.8623 59.3716 76.6994 59.375 74.5156Z" fill="#B28100"/>
<path d="M88.1866 141.342C89.1367 141.17 90.0119 140.713 90.6959 140.032C91.38 139.35 91.8405 138.477 92.0163 137.527L94.3468 124.91C99.7181 122.897 104.719 120.008 109.146 116.36L121.214 120.65C122.123 120.972 123.108 121.009 124.039 120.757C124.969 120.505 125.801 119.976 126.424 119.24L126.691 118.928C131.857 112.827 135.835 105.94 138.522 98.4586L138.655 98.0727C138.908 97.3899 138.982 96.6774 138.908 95.9797C138.774 94.8071 138.21 93.6938 137.275 92.8774L127.582 84.5797L127.552 84.5649C128.012 81.7446 128.25 78.8649 128.25 75.9852C128.25 73.4766 128.072 70.9532 127.716 68.4891C127.671 68.1625 127.612 67.836 127.567 67.5094C127.567 67.4797 127.552 67.4352 127.552 67.4055L137.275 59.093C138.299 58.2172 138.893 56.9555 138.937 55.6493C138.952 55.0555 138.863 54.4469 138.655 53.868L138.522 53.4821C135.845 46.0012 131.837 39.0663 126.691 33.0125L126.424 32.7008C125.8 31.9668 124.968 31.4392 124.038 31.1875C123.108 30.9357 122.123 30.9717 121.214 31.2907L109.146 35.5805C104.693 31.929 99.7351 29.0493 94.3616 27.0305H94.3468L92.0163 14.4133C92.0015 14.3391 91.9866 14.25 91.957 14.1758C91.7427 13.2784 91.2722 12.4625 90.6029 11.8274C89.9336 11.1923 89.0941 10.7654 88.1866 10.5985L87.7859 10.5243C80.0523 9.12896 71.9179 9.12896 64.1843 10.5243L63.7835 10.5985C62.8335 10.7706 61.9583 11.2278 61.2742 11.9092C60.5902 12.5906 60.1297 13.464 59.9538 14.4133L57.6085 27.0899C52.278 29.1092 47.314 31.9873 42.9132 35.6102L30.7562 31.2907C29.8472 30.9692 28.862 30.9319 27.9313 31.1838C27.0007 31.4357 26.1687 31.9648 25.546 32.7008L25.2788 33.0125C20.1391 39.0706 16.1317 46.0043 13.4484 53.4821L13.3148 53.868C13.0054 54.7307 12.9516 55.6643 13.1595 56.5568C13.3675 57.4494 13.8286 58.263 14.4874 58.9C14.5617 58.9594 14.621 59.0336 14.6952 59.093L24.5367 67.4946V67.5094C24.0765 70.3 23.8538 73.1352 23.8538 75.9704C23.8538 78.8204 24.0765 81.6704 24.5367 84.4461L14.6952 92.8477C13.9619 93.4755 13.437 94.3117 13.1904 95.245C12.9439 96.1783 12.9872 97.1646 13.3148 98.0727L13.4484 98.4586C16.1351 105.94 20.1132 112.842 25.2788 118.928L25.546 119.24C26.2734 120.086 27.2382 120.635 28.2921 120.828C29.0937 120.977 29.9398 120.932 30.7562 120.65L42.9132 116.331C42.9281 116.345 42.9577 116.36 42.9726 116.375C47.3812 119.982 52.2945 122.847 57.6085 124.851L59.9538 137.527C60.1297 138.477 60.5902 139.35 61.2742 140.032C61.9583 140.713 62.8335 141.17 63.7835 141.342L64.1843 141.416C68.0585 142.114 72.0218 142.47 75.9851 142.47H76.0296C79.9781 142.47 83.9413 142.114 87.7859 141.416L88.1866 141.342ZM82.2788 131.471C78.0865 131.946 73.854 131.946 69.6616 131.471L67.0046 117.043L61.3937 114.891C57.1632 113.288 53.2296 111.002 49.7117 108.107L45.0507 104.263L31.1867 109.191C28.6632 105.791 26.5554 102.125 24.8632 98.2657L36.0702 88.6915L35.1054 82.754C34.7492 80.5422 34.5562 78.2563 34.5562 76C34.5562 73.729 34.7343 71.4579 35.1054 69.2461L36.0702 63.3086L24.8632 53.7344C26.5406 49.8602 28.6632 46.2086 31.1867 42.8094L45.0507 47.7375L49.7117 43.893C53.2296 40.9985 57.1632 38.7125 61.3937 37.1094L67.0195 34.9868L69.6765 20.5586C73.8476 20.0836 78.1077 20.0836 82.2937 20.5586L84.9507 34.9571L90.6062 37.0797C94.8663 38.6829 98.8296 40.9688 102.377 43.8782L107.038 47.7079L120.813 42.8243C123.337 46.2235 125.444 49.8899 127.137 53.7493L116.048 63.2344L117.013 69.1571C117.384 71.3985 117.577 73.6993 117.577 76C117.577 78.3008 117.384 80.6016 117.013 82.843L116.034 88.7954L127.122 98.2805C125.441 102.153 123.319 105.819 120.798 109.206L107.023 104.322L102.362 108.152C98.8148 111.061 94.8663 113.347 90.5913 114.95L84.9359 117.073L82.2788 131.471Z" fill="#B28100"/>
</svg>
